<svg width="260" height="170" viewBox="0 0 260 170" fill="none" xmlns="http://www.w3.org/2000/svg">
<g clip-path="url(#clip0_1_5238)">
<rect width="260" height="170" rx="10" fill="#4C4C4C"/>
<rect width="260" height="170" rx="10" fill="url(#paint0_linear_1_5238)" fill-opacity="0.2"/>
<mask id="mask0_1_5238" style="mask-type:luminance" maskUnits="userSpaceOnUse" x="0" y="0" width="260" height="170">
<rect width="260" height="170" rx="10" fill="white"/>
<rect width="260" height="170" rx="10" stroke="white"/>
</mask>
<g mask="url(#mask0_1_5238)">
<path opacity="0.15" fill-rule="evenodd" clip-rule="evenodd" d="M66.1381 106C66.1381 28.692 127.974 -34 204.227 -34C280.48 -34 342.316 28.692 342.316 106C342.324 121.025 339.946 135.953 335.273 150.212H293.985V32.416L204.227 123.416L114.469 32.416V150.212H73.1806C68.4924 135.957 66.114 121.026 66.1381 106ZM144.407 104.628L183.596 144.36L204.227 165.276L224.857 144.36L264.019 104.628V178.744H322.21C297.989 219.064 254.215 246 204.227 246C154.239 246 110.465 219.064 86.2162 178.744H144.407V104.628Z" fill="url(#paint1_radial_1_5238)"/>
<path d="M63.1 29.29H65.84L69.24 39.55L72.69 29.29H75.39L77.87 44H75.17L73.59 34.71L70.46 44H67.99L64.9 34.71L63.29 44H60.56L63.1 29.29ZM86.11 28.92C88.19 28.92 89.9767 29.6733 91.47 31.18C92.97 32.6867 93.72 34.5233 93.72 36.69C93.72 38.8367 92.98 40.6533 91.5 42.14C90.0267 43.6267 88.2367 44.37 86.13 44.37C83.9233 44.37 82.09 43.6067 80.63 42.08C79.17 40.5533 78.44 38.74 78.44 36.64C78.44 35.2333 78.78 33.94 79.46 32.76C80.14 31.58 81.0733 30.6467 82.26 29.96C83.4533 29.2667 84.7367 28.92 86.11 28.92ZM86.08 31.66C84.72 31.66 83.5767 32.1333 82.65 33.08C81.7233 34.0267 81.26 35.23 81.26 36.69C81.26 38.3167 81.8433 39.6033 83.01 40.55C83.9167 41.29 84.9567 41.66 86.13 41.66C87.4567 41.66 88.5867 41.18 89.52 40.22C90.4533 39.26 90.92 38.0767 90.92 36.67C90.92 35.27 90.45 34.0867 89.51 33.12C88.57 32.1467 87.4267 31.66 86.08 31.66ZM95.41 29.29H98.09L104.4 38.97V29.29H107.2V44H104.51L98.21 34.35V44H95.41V29.29ZM109.61 29.29H117.64V32.03H112.39V34.69H117.64V37.38H112.39V41.25H117.64V44H109.61V29.29ZM119.49 29.29H122.46C124.087 29.29 125.243 29.4367 125.93 29.73C126.623 30.0167 127.18 30.4967 127.6 31.17C128.02 31.8433 128.23 32.64 128.23 33.56C128.23 34.5267 127.997 35.3367 127.53 35.99C127.07 36.6367 126.373 37.1267 125.44 37.46L128.92 44H125.86L122.55 37.77H122.29V44H119.49V29.29ZM122.29 35.04H123.17C124.063 35.04 124.677 34.9233 125.01 34.69C125.35 34.4567 125.52 34.07 125.52 33.53C125.52 33.21 125.437 32.9333 125.27 32.7C125.103 32.46 124.88 32.29 124.6 32.19C124.32 32.0833 123.807 32.03 123.06 32.03H122.29V35.04ZM137.17 28.92C139.25 28.92 141.037 29.6733 142.53 31.18C144.03 32.6867 144.78 34.5233 144.78 36.69C144.78 38.8367 144.04 40.6533 142.56 42.14C141.087 43.6267 139.297 44.37 137.19 44.37C134.983 44.37 133.15 43.6067 131.69 42.08C130.23 40.5533 129.5 38.74 129.5 36.64C129.5 35.2333 129.84 33.94 130.52 32.76C131.2 31.58 132.133 30.6467 133.32 29.96C134.513 29.2667 135.797 28.92 137.17 28.92ZM137.14 31.66C135.78 31.66 134.637 32.1333 133.71 33.08C132.783 34.0267 132.32 35.23 132.32 36.69C132.32 38.3167 132.903 39.6033 134.07 40.55C134.977 41.29 136.017 41.66 137.19 41.66C138.517 41.66 139.647 41.18 140.58 40.22C141.513 39.26 141.98 38.0767 141.98 36.67C141.98 35.27 141.51 34.0867 140.57 33.12C139.63 32.1467 138.487 31.66 137.14 31.66Z" fill="white"/>
<path d="M33.8227 22C26.1974 22 20.0138 28.2692 20.0138 36C20.0114 37.5026 20.2492 38.9957 20.7181 40.4212H24.8469V28.6416L33.8227 37.7416L42.7985 28.6416V40.4212H46.9273C47.3946 38.9953 47.6324 37.5025 47.6316 36C47.6316 28.2692 41.448 22 33.8227 22Z" fill="white"/>
<path d="M31.7596 39.836L27.8407 35.8628V43.2744H22.0216C24.4465 47.3064 28.8239 50 33.8227 50C38.8215 50 43.1989 47.3064 45.621 43.2744H39.8019V35.8628L35.8857 39.836L33.8227 41.9276L31.7596 39.836Z" fill="white"/>
</g>
</g>
<defs>
<linearGradient id="paint0_linear_1_5238" x1="-48.2402" y1="31.8135" x2="-3.49022" y2="214.676" gradientUnits="userSpaceOnUse">
<stop stop-color="#FA6800"/>
<stop offset="1" stop-color="#FA6800" stop-opacity="0.01"/>
</linearGradient>
<radialGradient id="paint1_radial_1_5238" cx="0" cy="0" r="1" gradientUnits="userSpaceOnUse" gradientTransform="translate(204.227 119.598) rotate(67.7237) scale(184.31 182.523)">
<stop stop-color="white"/>
<stop offset="1" stop-color="white" stop-opacity="0.01"/>
</radialGradient>
<clipPath id="clip0_1_5238">
<rect width="260" height="170" fill="white"/>
</clipPath>
</defs>
</svg>
