<svg width="346" height="180" viewBox="0 0 346 180" fill="none" xmlns="http://www.w3.org/2000/svg">
<g clip-path="url(#clip0_3359_4922)">
<rect width="346" height="180" rx="10" fill="#4C4C4C"/>
<rect width="346" height="180" rx="10" fill="url(#paint0_linear_3359_4922)" fill-opacity="0.2"/>
<mask id="mask0_3359_4922" style="mask-type:luminance" maskUnits="userSpaceOnUse" x="0" y="0" width="346" height="180">
<rect width="346" height="180" rx="10" fill="white"/>
<rect width="346" height="180" rx="10" stroke="white"/>
</mask>
<g mask="url(#mask0_3359_4922)">
<path opacity="0.15" fill-rule="evenodd" clip-rule="evenodd" d="M89.0002 126.235C89.0002 44.3798 171.29 -22 272.765 -22C374.239 -22 456.529 44.3798 456.529 126.235C456.54 142.144 453.375 157.951 447.157 173.048H392.212V48.3228L272.765 144.676L153.318 48.3228V173.048H98.3722C92.1333 157.955 88.9682 142.145 89.0002 126.235ZM193.158 124.783L245.31 166.852L272.765 188.998L300.219 166.852L352.335 124.783V203.258H429.773C397.541 245.95 339.287 274.471 272.765 274.471C206.242 274.471 147.989 245.95 115.72 203.258H193.158V124.783Z" fill="url(#paint1_radial_3359_4922)"/>
<path d="M49.5996 23.2941C36.9178 23.2941 26.6338 32.8639 26.6338 44.6648C26.6298 46.9585 27.0253 49.2377 27.805 51.4136H34.6718V33.4323L49.5996 47.3233L64.5273 33.4323V51.4136H71.3941C72.1712 49.2371 72.5667 46.9583 72.5653 44.6648C72.5653 32.8639 62.2813 23.2941 49.5996 23.2941" fill="white"/>
<path d="M46.1685 50.5204L39.6508 44.4554V55.7691H29.973C34.0058 61.9238 41.2859 66.0356 49.5996 66.0356C57.9132 66.0356 65.1933 61.9238 69.2215 55.7691H59.5437V44.4554L53.0306 50.5204L49.5996 53.7132L46.1685 50.5204V50.5204Z" fill="white"/>
</g>
</g>
<defs>
<linearGradient id="paint0_linear_3359_4922" x1="-64.1966" y1="33.6848" x2="-25.6987" y2="231.404" gradientUnits="userSpaceOnUse">
<stop stop-color="#FA6800"/>
<stop offset="1" stop-color="#FA6800" stop-opacity="0.01"/>
</linearGradient>
<radialGradient id="paint1_radial_3359_4922" cx="0" cy="0" r="1" gradientUnits="userSpaceOnUse" gradientTransform="translate(272.765 140.633) rotate(62.7579) scale(203.117 233.371)">
<stop stop-color="white"/>
<stop offset="1" stop-color="white" stop-opacity="0.01"/>
</radialGradient>
<clipPath id="clip0_3359_4922">
<rect width="346" height="180" fill="white"/>
</clipPath>
</defs>
</svg>
